<?xml version="1.0" encoding="utf-8"?>
<!-- Generator: Adobe Illustrator 19.2.1, SVG Export Plug-In . SVG Version: 6.00 Build 0)  -->
<svg version="1.1" id="Layer_1" xmlns="http://www.w3.org/2000/svg" xmlns:xlink="http://www.w3.org/1999/xlink" x="0px" y="0px"
	 viewBox="0 0 841.9 595.3" style="enable-background:new 0 0 841.9 595.3;" xml:space="preserve">
<style type="text/css">
	.st0{fill:#EBB5D3;}
	.st1{fill:#666A7A;}
	.st2{fill:none;stroke:#EBB5D3;stroke-width:3;stroke-miterlimit:10;}
</style>
<g>
	<path class="st0" d="M46,303h14.9v51c7.7-10.5,19.3-16.9,32.4-16.9c25,0,42.7,19.9,42.7,50.5c0,31.2-17.7,50.3-42.7,50.3
		c-13.5,0-25.2-7-32.4-16.7v14.3H46V303z M89.5,424.6c19.5,0,31-15.7,31-36.9c0-21.3-11.5-37.1-31-37.1c-11.7,0-23.4,7.2-28.6,15.5
		v43.5C66.1,417.8,77.8,424.6,89.5,424.6z"/>
	<path class="st0" d="M154.7,387.4c0-27.8,18.3-50.3,47.5-50.3c29.2,0,47.5,22.4,47.5,50.3s-18.3,50.5-47.5,50.5
		C172.9,437.9,154.7,415.2,154.7,387.4z M233.9,387.4c0-19.5-11.3-36.9-31.8-36.9c-20.5,0-32,17.5-32,36.9c0,19.7,11.5,37.1,32,37.1
		C222.6,424.6,233.9,407.1,233.9,387.4z"/>
	<path class="st0" d="M276.8,415.4v-62.8h-15.9v-13.1h15.9v-26.2h14.9v26.2h19.5v13.1h-19.5v59.6c0,7.2,3.2,12.3,9.7,12.3
		c4.2,0,8.1-1.8,10.1-4l4.4,11.1c-3.8,3.6-9.1,6.2-17.9,6.2C284,437.9,276.8,429.7,276.8,415.4z"/>
	<path class="st0" d="M326.7,387.4c0-27.8,18.3-50.3,47.5-50.3c29.2,0,47.5,22.4,47.5,50.3s-18.3,50.5-47.5,50.5
		C345,437.9,326.7,415.2,326.7,387.4z M405.9,387.4c0-19.5-11.3-36.9-31.8-36.9c-20.5,0-32,17.5-32,36.9c0,19.7,11.5,37.1,32,37.1
		C394.6,424.6,405.9,407.1,405.9,387.4z"/>
	<path class="st1" d="M450,352.7h-15.9v-13.1H450v-7.3c0-19.9,11.1-31.2,27.8-31.2c5.6,0,10.7,1,14.5,3.4l-3.8,11.3
		c-2.2-1.4-4.8-2.4-8.5-2.4c-9.7,0-15.1,6.8-15.1,18.9v7.3h19.5v13.1h-19.5v82.8H450V352.7z M502.1,303H517v132.5h-14.9V303z"/>
	<path class="st1" d="M541.4,387.4c0-27.8,18.3-50.3,47.5-50.3s47.5,22.4,47.5,50.3s-18.3,50.5-47.5,50.5S541.4,415.2,541.4,387.4z
		 M620.7,387.4c0-19.5-11.3-36.9-31.8-36.9s-32,17.5-32,36.9c0,19.7,11.5,37.1,32,37.1S620.7,407.1,620.7,387.4z"/>
	<path class="st1" d="M718.6,358.4l-25,77.1h-14.9l-30.6-95.9h15.5L687,416l25.2-76.5H725l25.2,76.5l23.4-76.5h15.5l-30.6,95.9
		h-14.9L718.6,358.4z"/>
</g>
<path class="st2" d="M663.6,289.8V263C794.9,209.7,783.4,90.6,783.4,90.6l-105,58.3l-35.7,49.8v91"/>
<polygon class="st1" points="659,270.6 654.5,262.9 659,255.2 667.9,255.2 672.4,262.9 667.9,270.6 "/>
<polygon class="st1" points="675,155.7 670.5,148 675,140.3 683.9,140.3 688.4,148 683.9,155.7 "/>
<polygon class="st1" points="638.3,206.5 633.8,198.8 638.3,191.1 647.2,191.1 651.7,198.8 647.2,206.5 "/>
<path class="st2" d="M596.7,289.8V263c-139-53.2-126.8-172.3-126.8-172.3L581,149l37.7,49.8v91"/>
<polygon class="st1" points="601.4,270.6 606.1,262.9 601.4,255.2 591.9,255.2 587.2,262.9 591.9,270.6 "/>
<polygon class="st1" points="584.6,155.7 589.3,148 584.6,140.3 575.2,140.3 570.4,148 575.2,155.7 "/>
<polygon class="st1" points="623.4,206.5 628.1,198.8 623.4,191.1 614,191.1 609.2,198.8 614,206.5 "/>
<polygon class="st1" points="54.7,504.7 46.6,500 46.6,490.6 54.7,485.9 62.8,490.6 62.8,500 "/>
<polygon class="st1" points="305.9,504.7 297.7,500 297.7,490.6 305.9,485.9 314,490.6 314,500 "/>
<polygon class="st1" points="690.4,504.7 682.3,500 682.3,490.6 690.4,485.9 698.6,490.6 698.6,500 "/>
<g>
	<g>
		<path class="st1" d="M89.2,500.4H72.5l-3.3,8h-1.7L80,478.6h1.7l12.5,29.9h-1.7L89.2,500.4z M73,499.1h15.6l-7.8-18.9L73,499.1z"
			/>
		<path class="st1" d="M97.7,503.2c1.8,2.2,5,4.4,9.3,4.4c6.9,0,8.7-3.9,8.7-6.8c0-4.8-4.3-6.1-8.8-7.4c-4.6-1.3-9.4-2.6-9.4-7.8
			c0-4.8,4.4-7.6,9.4-7.6c4.4,0,7.6,1.6,9.7,4.2l-1.1,1c-2.1-2.7-5.1-3.9-8.6-3.9c-4.3,0-7.8,2.6-7.8,6.3c0,4,4,5.2,8.3,6.4
			c4.8,1.4,9.9,2.9,9.9,8.8c0,3.4-2.2,8.1-10.2,8.1c-4.7,0-8.3-2-10.4-4.8L97.7,503.2z"/>
		<path class="st1" d="M132.5,495.5l-12-16.9h1.8l10.9,15.5l10.9-15.5h1.8l-12,16.9v13h-1.4V495.5z"/>
		<path class="st1" d="M152.3,480.9v27.6h-1.4v-29.9h1.4l20.2,27.3v-27.3h1.4v29.9h-1.4L152.3,480.9z"/>
		<path class="st1" d="M180.7,493.5c0-9.2,6.6-15.5,14.9-15.5c4.2,0,7.8,1.7,10.4,4.7l-1.1,1c-2.1-2.6-5.6-4.3-9.3-4.3
			c-7.5,0-13.4,5.7-13.4,14.1c0,8.3,5.9,14.1,13.4,14.1c3.7,0,7.2-1.7,9.3-4.3l1.2,0.9c-2.8,3.2-6.2,4.8-10.4,4.8
			C187.4,509,180.7,502.7,180.7,493.5z"/>
	</g>
</g>
<g>
	<g>
		<path class="st1" d="M708.1,503.2c1.8,2.2,5,4.4,9.3,4.4c6.9,0,8.7-3.9,8.7-6.8c0-4.8-4.3-6.1-8.8-7.4c-4.6-1.3-9.4-2.6-9.4-7.8
			c0-4.8,4.4-7.6,9.4-7.6c4.4,0,7.6,1.6,9.7,4.2l-1.1,1c-2.1-2.7-5.1-3.9-8.6-3.9c-4.3,0-7.8,2.6-7.8,6.3c0,4,4,5.2,8.3,6.4
			c4.8,1.4,9.9,2.9,9.9,8.8c0,3.4-2.2,8.1-10.2,8.1c-4.7,0-8.3-2-10.4-4.8L708.1,503.2z"/>
		<path class="st1" d="M749.4,481.3l-7.8,27.2H740l-8.5-29.9h1.6l7.8,27.8l7.8-27.8h1.5l7.8,27.8l7.8-27.8h1.6l-8.5,29.9h-1.7
			L749.4,481.3z"/>
		<path class="st1" d="M772.5,478.6h18.3v1.3h-16.9v12.5h16.5v1.3h-16.5v14.7h-1.4V478.6z"/>
	</g>
</g>
<g>
	<g>
		<path class="st1" d="M325.5,478.6h18.3v1.3H327v12.5h16.5v1.3H327v14.7h-1.4V478.6z"/>
		<path class="st1" d="M358,495.6h-7.2v12.9h-1.4v-29.9h10.3c4.8,0,8.8,3,8.8,8.5c0,5.5-4,8.5-8.8,8.5l9.2,12.9h-1.8L358,495.6z
			 M359.7,479.9h-8.9v14.3h8.9c4.4,0,7.3-3,7.3-7.2C367,482.9,364.1,479.9,359.7,479.9z"/>
		<path class="st1" d="M394,500.4h-16.7l-3.3,8h-1.7l12.5-29.9h1.7l12.5,29.9h-1.7L394,500.4z M377.9,499.1h15.6l-7.8-18.9
			L377.9,499.1z"/>
		<path class="st1" d="M429.1,480.3l-11.7,28.2H417l-11.7-28.2v28.2h-1.4v-29.9h2.3l11,26.8l11-26.8h2.3v29.9h-1.4V480.3z"/>
		<path class="st1" d="M438.4,478.6h18.3v1.3h-16.9v12.5h16.5v1.3h-16.5v13.4h16.9v1.3h-18.3V478.6z"/>
		<path class="st1" d="M478.6,481.3l-7.8,27.2h-1.7l-8.5-29.9h1.6l7.8,27.8l7.8-27.8h1.5l7.8,27.8l7.8-27.8h1.6l-8.5,29.9h-1.7
			L478.6,481.3z"/>
		<path class="st1" d="M513.9,478.1c8.7,0,14.2,6.8,14.2,15.5s-5.6,15.5-14.2,15.5c-8.7,0-14.2-6.8-14.2-15.5
			S505.2,478.1,513.9,478.1z M513.9,479.4c-7.8,0-12.6,5.9-12.6,14.1c0,8.1,4.9,14.1,12.6,14.1c7.7,0,12.6-6,12.6-14.1
			C526.6,485.3,521.6,479.4,513.9,479.4z"/>
		<path class="st1" d="M543.6,495.6h-7.2v12.9H535v-29.9h10.3c4.8,0,8.8,3,8.8,8.5c0,5.5-4,8.5-8.8,8.5l9.2,12.9h-1.8L543.6,495.6z
			 M545.3,479.9h-8.9v14.3h8.9c4.4,0,7.3-3,7.3-7.2C552.6,482.9,549.7,479.9,545.3,479.9z"/>
		<path class="st1" d="M566,493.8l-3.6,3.9v10.8H561v-29.9h1.4v17.3l15.6-17.3h1.9l-13,14.3l14.3,15.6h-1.9L566,493.8z"/>
	</g>
</g>
</svg>
