<?xml version="1.0" encoding="utf-8"?>
<!-- Generator: Adobe Illustrator 19.2.1, SVG Export Plug-In . SVG Version: 6.00 Build 0)  -->
<svg version="1.1" id="Layer_1" xmlns="http://www.w3.org/2000/svg" xmlns:xlink="http://www.w3.org/1999/xlink" x="0px" y="0px"
	 viewBox="0 0 841.9 595.3" style="enable-background:new 0 0 841.9 595.3;" xml:space="preserve">
<style type="text/css">
	.st0{fill:none;stroke:#EBB5D3;stroke-width:7;stroke-miterlimit:10;}
	.st1{fill:#EBB5D3;stroke:#FFFFFF;stroke-width:4;stroke-miterlimit:10;}
	.st2{fill:#EBB5D3;}
	.st3{fill:#666A7A;}
</style>
<path class="st0" d="M670,266.3v-35.5C843.9,160.3,828.7,2.6,828.7,2.6l-139,77.2l-47.2,66v120.5"/>
<polygon class="st1" points="664,240.9 658.1,230.7 664,220.5 675.8,220.5 681.7,230.7 675.8,240.9 "/>
<polygon class="st1" points="685.1,88.8 679.2,78.6 685.1,68.4 697,68.4 702.9,78.6 697,88.8 "/>
<polygon class="st1" points="636.6,156.1 630.7,145.8 636.6,135.6 648.4,135.6 654.3,145.8 648.4,156.1 "/>
<path class="st0" d="M581.5,266.3v-35.5C397.5,160.3,413.6,2.6,413.6,2.6l147,77.2l49.9,66v120.5"/>
<polygon class="st1" points="587.7,240.9 594,230.7 587.7,220.5 575.2,220.5 569,230.7 575.2,240.9 "/>
<polygon class="st1" points="565.5,88.8 571.8,78.6 565.5,68.4 553,68.4 546.8,78.6 553,88.8 "/>
<polygon class="st1" points="616.9,156.1 623.1,145.8 616.9,135.6 604.4,135.6 598.1,145.8 604.4,156.1 "/>
<g>
	<path class="st2" d="M13,312.8h16.3v55.8c8.5-11.5,21.1-18.5,35.4-18.5c27.4,0,46.7,21.7,46.7,55.2c0,34.1-19.3,55-46.7,55
		c-14.8,0-27.6-7.6-35.4-18.2v15.6H13V312.8z M60.6,445.7c21.3,0,33.9-17.2,33.9-40.4s-12.6-40.6-33.9-40.6
		c-12.8,0-25.6,7.8-31.3,16.9v47.6C34.9,438.3,47.8,445.7,60.6,445.7z"/>
	<path class="st2" d="M131.8,405.1c0-30.4,20-55,51.9-55s51.9,24.5,51.9,55c0,30.4-20,55.2-51.9,55.2S131.8,435.5,131.8,405.1z
		 M218.5,405.1c0-21.3-12.4-40.4-34.8-40.4s-35,19.1-35,40.4c0,21.5,12.6,40.6,35,40.6S218.5,426.6,218.5,405.1z"/>
	<path class="st2" d="M265.4,435.7v-68.6H248v-14.3h17.4v-28.7h16.3v28.7H303v14.3h-21.3v65.2c0,7.8,3.5,13.5,10.6,13.5
		c4.6,0,8.9-2,11.1-4.3l4.8,12.2c-4.1,3.9-10,6.7-19.6,6.7C273.2,460.3,265.4,451.4,265.4,435.7z"/>
	<path class="st2" d="M320,405.1c0-30.4,20-55,51.9-55s51.9,24.5,51.9,55c0,30.4-20,55.2-51.9,55.2S320,435.5,320,405.1z
		 M406.6,405.1c0-21.3-12.4-40.4-34.8-40.4c-22.4,0-35,19.1-35,40.4c0,21.5,12.6,40.6,35,40.6C394.2,445.7,406.6,426.6,406.6,405.1z
		"/>
	<path class="st3" d="M454.8,367.1h-17.4v-14.3h17.4v-8c0-21.7,12.2-34.1,30.4-34.1c6.1,0,11.7,1.1,15.9,3.7l-4.1,12.4
		c-2.4-1.5-5.2-2.6-9.3-2.6c-10.6,0-16.5,7.4-16.5,20.6v8h21.3v14.3h-21.3v90.6h-16.3V367.1z M511.8,312.8H528v144.9h-16.3V312.8z"
		/>
	<path class="st3" d="M554.8,405.1c0-30.4,20-55,51.9-55c31.9,0,51.9,24.5,51.9,55c0,30.4-20,55.2-51.9,55.2
		C574.8,460.3,554.8,435.5,554.8,405.1z M641.4,405.1c0-21.3-12.4-40.4-34.8-40.4s-35,19.1-35,40.4c0,21.5,12.6,40.6,35,40.6
		S641.4,426.6,641.4,405.1z"/>
	<path class="st3" d="M748.5,373.4l-27.4,84.3h-16.3l-33.5-104.9h16.9l25.6,83.6l27.6-83.6h13.9l27.6,83.6l25.6-83.6h16.9
		l-33.5,104.9h-16.3L748.5,373.4z"/>
</g>
<polygon class="st3" points="22.5,533.4 13.6,528.2 13.6,517.9 22.5,512.8 31.4,517.9 31.4,528.2 "/>
<polygon class="st3" points="297.2,533.4 288.3,528.2 288.3,517.9 297.2,512.8 306.1,517.9 306.1,528.2 "/>
<polygon class="st3" points="717.7,533.4 708.8,528.2 708.8,517.9 717.7,512.8 726.6,517.9 726.6,528.2 "/>
<g>
	<g>
		<path class="st3" d="M60.2,528.7H42l-3.6,8.8h-1.8l13.6-32.7H52l13.6,32.7h-1.8L60.2,528.7z M42.6,527.2h17l-8.5-20.6L42.6,527.2z
			"/>
		<path class="st3" d="M69.6,531.7c2,2.4,5.4,4.9,10.1,4.9c7.5,0,9.5-4.3,9.5-7.4c0-5.3-4.8-6.7-9.6-8.1c-5-1.4-10.2-2.8-10.2-8.5
			c0-5.3,4.9-8.3,10.2-8.3c4.8,0,8.3,1.8,10.6,4.6l-1.2,1.1c-2.3-3-5.6-4.3-9.4-4.3c-4.8,0-8.5,2.8-8.5,6.9c0,4.4,4.4,5.6,9.1,7
			c5.2,1.5,10.8,3.2,10.8,9.7c0,3.7-2.4,8.9-11.2,8.9c-5.1,0-9.1-2.2-11.4-5.2L69.6,531.7z"/>
		<path class="st3" d="M107.6,523.3l-13.1-18.5h2l11.9,17l11.9-17h2l-13.1,18.5v14.2h-1.6V523.3z"/>
		<path class="st3" d="M129.2,507.3v30.1h-1.6v-32.7h1.6l22,29.8v-29.8h1.6v32.7h-1.6L129.2,507.3z"/>
		<path class="st3" d="M160.3,521.1c0-10,7.3-16.9,16.3-16.9c4.6,0,8.5,1.8,11.4,5.1l-1.2,1.1c-2.3-2.9-6.1-4.8-10.1-4.8
			c-8.2,0-14.6,6.2-14.6,15.4c0,9.1,6.4,15.4,14.6,15.4c4.1,0,7.8-1.9,10.1-4.8l1.3,1c-3.1,3.5-6.8,5.2-11.4,5.2
			C167.6,538,160.3,531.2,160.3,521.1z"/>
	</g>
</g>
<g>
	<g>
		<path class="st3" d="M737,531.7c2,2.4,5.4,4.9,10.1,4.9c7.5,0,9.5-4.3,9.5-7.4c0-5.3-4.8-6.7-9.6-8.1c-5-1.4-10.2-2.8-10.2-8.5
			c0-5.3,4.9-8.3,10.2-8.3c4.8,0,8.3,1.8,10.6,4.6l-1.2,1.1c-2.3-3-5.6-4.3-9.4-4.3c-4.8,0-8.5,2.8-8.5,6.9c0,4.4,4.4,5.6,9.1,7
			c5.2,1.5,10.8,3.2,10.8,9.7c0,3.7-2.4,8.9-11.2,8.9c-5.1,0-9.1-2.2-11.4-5.2L737,531.7z"/>
		<path class="st3" d="M782.2,507.7l-8.5,29.7h-1.9l-9.3-32.7h1.7l8.5,30.3l8.6-30.3h1.7l8.6,30.3l8.5-30.3h1.7l-9.3,32.7h-1.9
			L782.2,507.7z"/>
		<path class="st3" d="M807.4,504.8h20v1.5H809v13.7h18.1v1.5H809v16.1h-1.6V504.8z"/>
	</g>
</g>
<g>
	<g>
		<path class="st3" d="M318.7,504.8h20v1.5h-18.4v13.7h18.1v1.5h-18.1v16.1h-1.6V504.8z"/>
		<path class="st3" d="M354.2,523.3h-7.8v14.1h-1.6v-32.7h11.3c5.3,0,9.7,3.3,9.7,9.3c0,6-4.4,9.3-9.7,9.3l10.1,14.1h-2L354.2,523.3
			z M356.1,506.2h-9.7v15.6h9.7c4.8,0,7.9-3.3,7.9-7.8C364,509.5,360.9,506.2,356.1,506.2z"/>
		<path class="st3" d="M393.6,528.7h-18.2l-3.6,8.8h-1.8l13.6-32.7h1.9l13.6,32.7h-1.8L393.6,528.7z M376,527.2h17l-8.5-20.6
			L376,527.2z"/>
		<path class="st3" d="M431.9,506.6l-12.7,30.8h-0.5L406,506.6v30.8h-1.6v-32.7h2.5l12.1,29.3l12.1-29.3h2.5v32.7h-1.6V506.6z"/>
		<path class="st3" d="M442.1,504.8h20v1.5h-18.4v13.7h18.1v1.5h-18.1V536h18.4v1.5h-20V504.8z"/>
		<path class="st3" d="M486.1,507.7l-8.5,29.7h-1.9l-9.3-32.7h1.7l8.5,30.3l8.6-30.3h1.7l8.6,30.3l8.5-30.3h1.7l-9.3,32.7h-1.9
			L486.1,507.7z"/>
		<path class="st3" d="M524.7,504.2c9.5,0,15.5,7.4,15.5,16.9c0,9.5-6.1,16.9-15.5,16.9c-9.5,0-15.5-7.4-15.5-16.9
			C509.2,511.7,515.2,504.2,524.7,504.2z M524.7,505.7c-8.5,0-13.8,6.5-13.8,15.4c0,8.9,5.3,15.4,13.8,15.4
			c8.4,0,13.8-6.6,13.8-15.4C538.5,512.2,533.1,505.7,524.7,505.7z"/>
		<path class="st3" d="M557.2,523.3h-7.8v14.1h-1.6v-32.7H559c5.3,0,9.7,3.3,9.7,9.3c0,6-4.4,9.3-9.7,9.3l10.1,14.1h-2L557.2,523.3z
			 M559,506.2h-9.7v15.6h9.7c4.8,0,7.9-3.3,7.9-7.8C567,509.5,563.8,506.2,559,506.2z"/>
		<path class="st3" d="M581.6,521.4l-3.9,4.3v11.8h-1.6v-32.7h1.6v18.9l17-18.9h2.1l-14.2,15.6l15.7,17.1h-2.1L581.6,521.4z"/>
	</g>
</g>
</svg>
